<?xml version="1.0" encoding="UTF-8"?><svg id="Layer_2" xmlns="http://www.w3.org/2000/svg" width="1231.9" height="378.76" viewBox="0 0 1231.9 378.76"><defs><style>.cls-1{fill:#efece5;stroke-width:0px;}</style></defs><g id="Layer_3"><path class="cls-1" d="M66.84,168.23c.24,9.08.8,13.63,2.78,22.76,16.57,0,33.14,0,49.71,0-11.49-67.77,22.41-120.14,70.8-164.67-11.19,1.43-22.38,2.9-33.56,4.41C100.57,67.66,23.99,119.12,10.6,190.99c16.58,0,33.15,0,49.73,0,1.73-9.08,3.04-13.63,6.5-22.76Z"/><path class="cls-1" d="M261.43,164.5c-16.19.15-32.39.32-48.58.49,5.74-36.58,19.29-68.47,38.71-99.88,14.6-.87,29.2-1.71,43.81-2.5,9.9-17.95,21.68-34.65,34.07-50.94-26.04,2.24-52.05,4.73-78.04,7.48-46.86,46.4-89.08,102.89-88.87,171.82,32.52-.01,65.03-.03,97.55-.05-.07-10.57.2-15.86,1.35-26.43Z"/><path class="cls-1" d="M382.9,163.55c-16.19.1-32.39.21-48.58.33,3.79-36.46,12.91-70.51,26.78-104.41,14.6-.6,29.2-1.16,43.81-1.68,6.55-18.04,13.89-35.53,22.09-52.88-26.03,1.47-52.04,3.19-78.04,5.18-38.01,54.73-63.22,113.49-64.48,180.82,32.52-.02,65.03-.05,97.55-.08-.04-10.91.13-16.36.88-27.27Z"/><path class="cls-1" d="M485.53,2.23c-13.01.48-26.02,1.03-39.02,1.67-25.06,60.04-39.34,121.72-40.1,186.9,16.26-.02,32.52-.03,48.78-.05.57-64.51,11.08-126.99,30.34-188.52Z"/><path class="cls-1" d="M544.06.6c-13.01.25-26.02.57-39.02.97-16.26,62.12-24.99,124.91-25.46,189.15,16.26-.02,32.52-.04,48.78-.06.29-63.81,5.58-127.07,15.71-190.07Z"/><path class="cls-1" d="M641.61.18c-13.01-.14-26.02-.2-39.02-.18-.7,63.52-1.06,127.05-1.08,190.57,16.26-.02,32.52-.04,48.78-.06-.17-63.58-3.07-126.99-8.68-190.33Z"/><path class="cls-1" d="M747.36,164.74c2.19,10.26,3.2,15.38,4.97,25.62,16.57-.02,33.14-.05,49.71-.07-12.47-65.83-36.76-127.51-65.6-187.75-11.19-.42-22.37-.8-33.56-1.15,6.45,63.55,1.41,126.24-9.25,189.05,16.58-.02,33.16-.05,49.73-.07,1.81-10.26,2.62-15.39,4-25.63Z"/><path class="cls-1" d="M864.94,60c10.95.5,21.91,1.01,32.86,1.55-9.19-18-20.2-34.87-31.81-51.37-32.49-2.49-65.01-4.56-97.55-6.22,7.38,17.49,13.97,35.09,19.83,53.15,10.95.35,21.91.72,32.86,1.11,15.18,43.1,23.56,86.29,24.27,132.01,16.26-.02,32.52-.05,48.77-.07-.88-45.84-11.15-88.11-29.24-130.16Z"/><path class="cls-1" d="M1050.95,165.56c-16.19-.2-32.39-.38-48.58-.56-5.77-36.58-19.37-68.44-38.85-99.81,14.61.91,29.21,1.86,43.81,2.84-13.5-17.4-28.06-33.35-43.79-48.76-25.99-2.76-52-5.26-78.04-7.51,40.21,53.1,68.03,110.8,69.65,178.31,32.52-.05,65.04-.1,97.55-.14.03-9.74-.32-14.62-1.75-24.36Z"/><path class="cls-1" d="M1073.05,72.92c8.76.7,13.14,1.06,21.9,1.79,16.77,1.49,32.32,11.77,42.79,24.54,21.15,27.58,35.18,55.33,36.89,90.5,16.26-.02,32.52-.04,48.78-.06-.34-34.32-18.39-62.14-40.06-87.25-34.64-37.39-91.1-66.76-141.78-73.81-19.49-2.57-39-4.97-58.53-7.19,48.08,44.38,93.77,99.54,94.04,168.45,16.26-.02,32.52-.05,48.78-.07-1.86-46.19-23.14-82.52-52.81-116.9Z"/><path class="cls-1" d="M68.81,189.94c-16.58.01-33.16.02-49.73.03-.94,4.55-1.28,6.81-1.72,11.34,16.56.13,33.12.25,49.69.37.47-4.69.83-7.04,1.76-11.74Z"/><path class="cls-1" d="M127.8,189.89c-16.57.01-33.14.03-49.71.04.98,4.73,1.58,7.1,3,11.85,16.55.11,33.11.22,49.67.32-1.39-4.89-1.98-7.33-2.96-12.2Z"/><path class="cls-1" d="M268.56,189.75c-32.52.04-65.04.07-97.55.1.01,4.99.11,7.48.5,12.47,32.48.17,64.96.32,97.44.44-.3-5.21-.37-7.81-.38-13.01Z"/><path class="cls-1" d="M390.5,189.61c-32.52.04-65.04.08-97.55.12,0,5.25.08,7.88.35,13.13,32.48.11,64.96.19,97.44.26-.19-5.4-.24-8.1-.24-13.5Z"/><path class="cls-1" d="M463.67,189.51c-16.26.02-32.52.04-48.78.06,0,5.43.04,8.15.21,13.58,16.24.02,32.48.05,48.72.06-.12-5.48-.15-8.22-.16-13.7Z"/><path class="cls-1" d="M536.83,189.42c-16.26.02-32.52.04-48.78.06,0,5.5.03,8.25.13,13.74,16.24,0,32.48.01,48.73,0-.06-5.53-.07-8.29-.07-13.81Z"/><path class="cls-1" d="M658.77,189.26c-16.26.02-32.52.04-48.78.06,0,5.54,0,8.31,0,13.85,16.24-.02,32.48-.05,48.73-.08.04-5.54.05-8.3.05-13.84Z"/><path class="cls-1" d="M751.84,189.14c-16.58.02-33.15.04-49.73.06-.97,5.52-1.47,8.28-2.52,13.8,16.57-.04,33.13-.09,49.7-.14,1.08-5.49,1.59-8.24,2.55-13.72Z"/><path class="cls-1" d="M810.52,189.07c-16.57.02-33.14.04-49.71.06.96,5.48,1.41,8.22,2.24,13.69,16.56-.06,33.12-.12,49.68-.19-.79-5.42-1.24-8.14-2.21-13.57Z"/><path class="cls-1" d="M902.65,188.96c-16.26.02-32.52.04-48.77.06,0,5.38-.04,8.06-.25,13.44,16.24-.08,32.48-.15,48.73-.24.25-5.3.31-7.95.3-13.26Z"/><path class="cls-1" d="M1061.17,188.8c-32.52.03-65.03.06-97.55.09.01,5.19-.06,7.79-.35,12.98,32.49-.2,64.98-.41,97.46-.65.37-4.97.46-7.45.44-12.42Z"/><path class="cls-1" d="M1134.34,188.74c-16.26.01-32.52.02-48.78.04.02,4.91-.07,7.36-.47,12.26,16.25-.12,32.49-.25,48.74-.38.43-4.77.53-7.15.51-11.92Z"/><path class="cls-1" d="M1231.9,188.68c-16.26,0-32.52.02-48.78.03.03,4.62-.08,6.92-.55,11.54,16.25-.14,32.49-.29,48.74-.44.51-4.45.62-6.67.59-11.12Z"/><path class="cls-1" d="M50.1,201.54c-16.56-.12-33.12-.25-49.69-.38-.3,3.16-.38,4.73-.42,7.88,16.53.24,33.06.47,49.59.69.08-3.27.19-4.91.51-8.2Z"/><path class="cls-1" d="M79.67,210.14c7.22,17.67,16.14,33.23,26.98,48.9-6.39-.28-9.59-.43-15.98-.72-10.51-.96-21.6-7.43-25.17-17.79-2.5-9.63-3.67-20.67-3.23-30.61-16.53-.22-33.06-.44-49.59-.68-.9,59.27,50.03,101.17,94.22,131.65,13.26,2.01,26.52,3.94,39.8,5.79-17.25-13.48-33.75-27.59-47.96-44.34,16.79,1.46,33.58,2.86,50.39,4.17,18.41,17.1,37.63,32.86,57.67,48,13.26,1.61,26.53,3.14,39.8,4.59-47.71-40.73-96.11-87.74-117.35-148.36-16.53-.19-33.05-.39-49.58-.59Z"/><path class="cls-1" d="M113.82,201.97c-16.55-.1-33.11-.21-49.66-.33,1.02,3.33,1.59,4.99,2.84,8.32,16.53.21,33.05.42,49.58.61-1.2-3.45-1.75-5.17-2.75-8.61Z"/><path class="cls-1" d="M168.19,211.15c6.31,47.62,32.33,88.02,62.77,123.92,11.09,12.67,29.05,24.7,45.94,27.19,6.76.68,10.14,1.01,16.91,1.65-38.27-44.14-67.65-91.65-76.74-150.09,16.19.17,32.39.34,48.58.49-.1-.91-.14-1.36-.23-2.27-32.41-.26-64.82-.55-97.23-.88Z"/><path class="cls-1" d="M251.99,202.68c-32.48-.13-64.96-.29-97.44-.47.28,3.52.48,5.28.96,8.8,32.41.34,64.82.65,97.23.92-.38-3.7-.53-5.55-.75-9.25Z"/><path class="cls-1" d="M373.79,203.06c-32.48-.07-64.96-.17-97.44-.28.21,3.74.35,5.61.7,9.35,32.41.24,64.82.45,97.23.62-.25-3.87-.35-5.81-.49-9.68Z"/><path class="cls-1" d="M289.73,212.22c5.39,47.61,21.76,90.14,45.89,131.35,7.6,12.7,23.11,25.21,38.13,26.96,7.05.5,10.57.74,17.61,1.2-28.15-49.27-47.03-100.17-52.83-156.81,16.19.12,32.39.23,48.58.32-.07-.97-.1-1.46-.16-2.43-32.41-.16-64.82-.36-97.23-.59Z"/><path class="cls-1" d="M446.88,203.17c-16.24-.02-32.48-.04-48.73-.07.13,3.9.22,5.85.44,9.75,16.21.07,32.41.14,48.62.19-.17-3.95-.24-5.92-.34-9.87Z"/><path class="cls-1" d="M411.28,212.92c3.31,48.74,13.68,95.19,30.25,141.12,4.26,10.57,13.75,20.37,25.5,21.76,8.76.37,13.14.54,21.89.86-16.31-53.58-26.2-107.61-29.02-163.56-16.21-.05-32.41-.11-48.62-.17Z"/><path class="cls-1" d="M519.97,203.21c-16.24,0-32.48,0-48.73-.02.08,3.97.14,5.95.29,9.92,16.21.04,32.41.08,48.62.1-.09-4-.13-6-.18-10Z"/><path class="cls-1" d="M532.83,213.24c-16.21-.02-32.41-.05-48.62-.09,1.94,45.98,7.8,91.09,17.42,136.09,3.43,12.79,14.62,28.34,29.42,28.65,18.48.39,36.95.66,55.43.81-.95-18.09-1.78-36.17-2.51-54.27-14.6-.07-29.21-.18-43.81-.34-3.95-36.88-6.39-73.77-7.32-110.85Z"/><path class="cls-1" d="M641.77,203.11c-16.24.03-32.48.05-48.73.07,0,4.03.01,6.05.03,10.08,16.21,0,32.42-.02,48.62-.04.04-4.04.05-6.06.07-10.11Z"/><path class="cls-1" d="M605.75,213.26c.02,55.17.1,110.33.23,165.5,7.16,0,10.74,0,17.89-.04,12.97-.99,22.91-13.99,23.6-26.56,3.84-46.26,6.15-92.54,6.9-138.96-16.21.03-32.42.05-48.62.06Z"/><path class="cls-1" d="M732.34,202.9c-16.57.05-33.13.09-49.7.13-.75,4.04-1.14,6.07-1.93,10.11,16.53-.04,33.07-.09,49.6-.15.84-4.04,1.24-6.05,2.02-10.09Z"/><path class="cls-1" d="M760.25,212.87c1.76,14.33,3.09,28.59,3.96,43,.33,6.9-5.82,13.29-12.67,13.38-9.04.12-13.56.17-22.6.27,5.18-18.76,9.88-37.57,14.06-56.58-16.53.07-33.07.12-49.6.17-11.3,55.62-25.81,110.44-40.2,165.32,13.27-.19,26.54-.45,39.8-.8,6.57-17.97,12.96-35.99,19.12-54.11,16.8-.31,33.59-.67,50.39-1.13-2.17,17.98-5.27,35.5-9.41,53.13,13.27-.59,26.54-1.26,39.8-2,18.1-52.88,22.89-105.43,16.94-160.9-16.53.09-33.06.17-49.59.25Z"/><path class="cls-1" d="M795.78,202.68c-16.56.06-33.12.12-49.68.17.62,4.03.91,6.04,1.46,10.06,16.53-.07,33.06-.14,49.59-.23-.5-4-.78-6-1.37-10.01Z"/><path class="cls-1" d="M885.41,202.28c-16.24.08-32.48.16-48.73.23-.14,3.98-.24,5.97-.49,9.95,16.21-.1,32.42-.21,48.62-.33.3-3.94.42-5.91.59-9.84Z"/><path class="cls-1" d="M848.88,212.39c-4.82,57.25-21.71,109.61-47.79,160.66,8.28-.49,12.42-.74,20.7-1.28,12.68-1.87,25.4-12.05,31.57-23.15,23.5-43.18,39.13-87.54,44.14-136.57-16.21.13-32.42.24-48.62.35Z"/><path class="cls-1" d="M1043.79,201.33c-32.49.23-64.98.44-97.46.63-.21,3.87-.35,5.81-.72,9.68,32.42-.29,64.84-.62,97.26-.98.48-3.73.66-5.6.93-9.33Z"/><path class="cls-1" d="M1055.17,213.15c.16-1.05.23-1.58.37-2.63-32.42.37-64.84.7-97.26,1.01-7.44,58.96-33.52,108.49-69.4,155.19,18.38-1.6,36.74-3.33,55.1-5.17,17.67-2.48,36.34-15.34,48.14-28.13,6.65-7.32,13.07-15.04,19.01-22.95-14.6,1-29.2,1.95-43.81,2.87,19.65-31.27,33.42-63.03,39.26-99.62,16.19-.18,32.39-.36,48.58-.56Z"/><path class="cls-1" d="M1116.89,200.78c-16.25.13-32.49.25-48.74.37-.28,3.69-.48,5.54-.98,9.23,16.21-.19,32.42-.39,48.63-.6.56-3.6.77-5.4,1.08-9Z"/><path class="cls-1" d="M1214.36,199.95c-16.25.15-32.49.29-48.74.43-.34,3.5-.58,5.25-1.19,8.75,16.21-.23,32.42-.46,48.63-.71.66-3.39.92-5.08,1.29-8.47Z"/><path class="cls-1" d="M1177.12,208.95c-6.31,27.21-18.35,48.3-35.41,70.3-10.56,12.73-26.16,22.98-42.95,24.49-8.76.74-13.14,1.1-21.9,1.81,24.05-27.54,46.13-58.82,51.63-95.92-16.21.21-32.42.42-48.63.61-8.51,59.97-50.32,107.4-93.41,146.7,19.53-2.24,39.04-4.66,58.53-7.25,50.79-7.12,107.43-36.35,142.35-73.65,18.2-20.86,31.41-40.89,38.43-67.81-16.21.25-32.42.49-48.63.73Z"/></g></svg>