<?xml version="1.0" encoding="UTF-8"?><svg id="Layer_1" xmlns="http://www.w3.org/2000/svg" width="87.66" height="104.01" viewBox="0 0 87.66 104.01"><defs><style>.cls-1{fill:#bd6e29;stroke-width:0px;}</style></defs><polygon class="cls-1" points="49.33 0 38.05 0 19.73 48.2 29.6 48.2 43.24 12.12 56.37 48.2 67.08 48.2 49.33 0"/><path class="cls-1" d="M69.9,55.53h-13.53l-5.64,16.91h-14.66l-5.64-16.91h-13.53L0,104.01h8.46c1.54-3.28,4.51-8.51,9.94-13.35,4.24-3.78,8.48-5.97,11.48-7.22,2.63,6.86,5.26,13.72,7.89,20.58h10.99l7.61-20.86c2.84,1.03,7.89,3.27,12.67,8.02,4.87,4.84,7.15,9.98,8.19,12.83h10.43l-17.76-48.48ZM19.73,77.79l3.38-11.84,4.23,9.02-7.61,2.82ZM43.24,91.04l-2.94-9.87h6.2l-3.26,9.87ZM59.47,73.85l3.66-8.46,3.95,12.97-7.61-4.51Z"/><circle class="cls-1" cx="43.24" cy="52" r="4.77"/></svg>